HIERARCHY
ROOT SpineBase
{
  OFFSET 0.000000 0.000000 0.000000
  CHANNELS 6 Xposition Yposition Zposition Zrotation Xrotation Yrotation
  JOINT SpineMid
  {
    OFFSET -0.000000 29.315963 0.000000
    CHANNELS 3 Zrotation Xrotation Yrotation
    JOINT SpineShoulder
    {
      OFFSET -0.006458 21.846581 -0.661129
      CHANNELS 3 Zrotation Xrotation Yrotation
      JOINT Neck
      {
        OFFSET 0.025759 7.243286 -0.476550
        CHANNELS 3 Zrotation Xrotation Yrotation
        JOINT Head
        {
          OFFSET -5.435359 13.078520 -1.011419
          CHANNELS 3 Zrotation Xrotation Yrotation
          End Site
          {
            OFFSET 0 0 0
          }
        }
      }
      JOINT ShoulderLeft
      {
        OFFSET -15.548967 -4.830758 7.970516
        CHANNELS 3 Zrotation Xrotation Yrotation
        JOINT ElbowLeft
        {
          OFFSET -1.020705 -28.561917 1.647787
          CHANNELS 3 Zrotation Xrotation Yrotation
          JOINT WristLeft
          {
            OFFSET 0.671596 -20.957256 -3.825910
            CHANNELS 3 Zrotation Xrotation Yrotation
            JOINT HandLeft
            {
              OFFSET 0.105250 -0.774799 -1.472839
              CHANNELS 3 Zrotation Xrotation Yrotation
              JOINT HandTipLeft
              {
                OFFSET 0.852219 -7.236109 -0.760479
                CHANNELS 3 Zrotation Xrotation Yrotation
                End Site
                {
                  OFFSET 0 0 0
                }
              }
              JOINT ThumbLeft
              {
                OFFSET -1.919182 -2.558786 -2.867219
                CHANNELS 3 Zrotation Xrotation Yrotation
                End Site
                {
                  OFFSET 0 0 0
                }
              }
            }
          }
        }
      }
      JOINT ShoulderRight
      {
        OFFSET 13.921470 -2.717148 -8.315426
        CHANNELS 3 Zrotation Xrotation Yrotation
        JOINT ElbowRight
        {
          OFFSET 6.374830 -23.196332 -2.411198
          CHANNELS 3 Zrotation Xrotation Yrotation
          JOINT WristRight
          {
            OFFSET -3.330985 -20.415534 -5.532889
            CHANNELS 3 Zrotation Xrotation Yrotation
            JOINT HandRight
            {
              OFFSET -2.814058 -6.155664 -0.771195
              CHANNELS 3 Zrotation Xrotation Yrotation
              JOINT HandTipRight
              {
                OFFSET -0.735079 -6.228955 -0.132001
                CHANNELS 3 Zrotation Xrotation Yrotation
                End Site
                {
                  OFFSET 0 0 0
                }
              }
              JOINT ThumbRight
              {
                OFFSET -2.655689 1.029232 -1.750693
                CHANNELS 3 Zrotation Xrotation Yrotation
                End Site
                {
                  OFFSET 0 0 0
                }
              }
            }
          }
        }
      }
    }
  }
  JOINT HipLeft
  {
    OFFSET -6.254723 0.215871 -0.349081
    CHANNELS 3 Zrotation Xrotation Yrotation
    JOINT KneeLeft
    {
      OFFSET 6.007523 -29.630455 5.630275
      CHANNELS 3 Zrotation Xrotation Yrotation
      JOINT AnkleLeft
      {
        OFFSET 5.512849 -30.896324 4.472981
        CHANNELS 3 Zrotation Xrotation Yrotation
        JOINT FootLeft
        {
          OFFSET 5.315875 -6.358383 -5.489965
          CHANNELS 3 Zrotation Xrotation Yrotation
          End Site
          {
            OFFSET 0 0 0
          }
        }
      }
    }
  }
  JOINT HipRight
  {
    OFFSET 6.838345 1.419231 -6.018504
    CHANNELS 3 Zrotation Xrotation Yrotation
    JOINT KneeRight
    {
      OFFSET 7.399148 -27.887931 3.873085
      CHANNELS 3 Zrotation Xrotation Yrotation
      JOINT AnkleRight
      {
        OFFSET 2.256848 -34.145463 7.603173
        CHANNELS 3 Zrotation Xrotation Yrotation
        JOINT FootRight
        {
          OFFSET -5.012266 -6.851394 -2.774574
          CHANNELS 3 Zrotation Xrotation Yrotation
          End Site
          {
            OFFSET 0 0 0
          }
        }
      }
    }
  }
}
MOTION
Frames: 10
Frame Time: 0.033333
-21.390114 44.501877 360.201084 23.145727 -33.678993 18.652804 0.461827 0.989089 -11.204342 -0.324394 -0.162257 0.980849 -0.994001 24.438169 -7.212340 0.000000 0.000000 0.000000 -31.207320 22.178055 9.304480 42.714975 6.793364 -11.812079 -25.544981 -44.362142 -26.353754 -3.693627 27.719006 27.146393 0.000000 0.000000 0.000000 0.000000 0.000000 0.000000 -1.688466 51.263362 -5.407923 -25.567139 -61.854272 -3.404851 4.558156 35.232700 -4.881332 1.733564 -1.518016 -3.594906 0.000000 0.000000 0.000000 0.000000 0.000000 0.000000 -142.954428 38.204651 97.865309 120.133349 -36.268918 66.303852 20.902426 37.158838 -21.629315 0.000000 0.000000 0.000000 -149.252095 46.323103 127.789018 140.394427 -64.312145 102.882822 5.329818 24.499487 -19.148705 0.000000 0.000000 0.000000
-21.789142 44.628935 360.247544 23.376721 -33.897367 18.012566 0.300596 1.336992 -10.436708 -0.316986 0.299706 0.891362 -4.243606 22.854615 -6.150986 0.000000 0.000000 0.000000 -29.912647 21.128743 8.594685 40.375414 6.772946 -11.623923 -22.868294 -38.462851 -26.249835 -2.603089 22.961373 27.609344 0.000000 0.000000 0.000000 0.000000 0.000000 0.000000 -2.417937 50.424221 -4.844976 -22.470555 -61.438099 -1.813691 2.354235 32.714227 -2.417501 1.590415 3.901983 -5.031234 0.000000 0.000000 0.000000 0.000000 0.000000 0.000000 -145.507811 33.680853 97.897505 122.035033 -33.213561 66.866511 26.263795 33.155205 -25.748097 0.000000 0.000000 0.000000 -150.831832 46.298927 130.912025 145.451730 -65.734121 109.667788 5.179717 11.581310 -6.346525 0.000000 0.000000 0.000000
-21.911816 45.637411 360.492523 23.749584 -34.537648 20.087274 0.272547 1.572441 -12.249604 -0.703017 0.722303 0.913125 -4.736997 21.628558 -6.256579 0.000000 0.000000 0.000000 -29.468347 20.676056 8.470694 39.326156 5.756605 -11.278950 -20.101603 -30.016493 -26.654117 -3.082398 16.161339 29.792844 0.000000 0.000000 0.000000 0.000000 0.000000 0.000000 -3.113073 50.056809 -4.231753 -20.028599 -61.344568 -0.583601 1.288427 30.758079 -0.825095 1.031224 7.967476 -6.104981 0.000000 0.000000 0.000000 0.000000 0.000000 0.000000 -148.678226 30.451565 99.477671 121.490537 -29.694445 65.532816 26.719551 23.288105 -27.003814 0.000000 0.000000 0.000000 -153.407771 49.281739 135.581743 148.421150 -68.445724 114.499636 7.059046 4.454893 1.595957 0.000000 0.000000 0.000000
-22.163324 45.896307 360.626935 23.165428 -34.378948 19.251339 0.293936 1.266323 -11.621085 -0.783448 0.727013 0.921131 -4.508236 20.700375 -6.550208 0.000000 0.000000 0.000000 -30.401748 19.014584 8.879617 40.819304 6.062454 -12.044213 -19.339649 -24.715707 -25.518924 -3.012667 10.935966 29.642401 0.000000 0.000000 0.000000 0.000000 0.000000 0.000000 -5.454825 48.117655 -2.600539 -15.397935 -59.120246 1.939057 1.021177 29.379747 -0.226870 0.369650 8.942217 -6.380922 0.000000 0.000000 0.000000 0.000000 0.000000 0.000000 -146.802528 31.727520 98.105521 124.108326 -29.798039 66.673107 23.047247 30.997399 -24.803424 0.000000 0.000000 0.000000 -153.839781 52.997179 138.551454 149.281790 -74.174273 118.633695 8.628077 6.989713 -1.302391 0.000000 0.000000 0.000000
-22.614770 45.578893 360.198987 22.290723 -33.121197 18.937199 0.028043 0.367200 -11.678279 -0.740281 0.578590 0.911414 -4.952120 19.401086 -6.575249 0.000000 0.000000 0.000000 -28.731142 18.069187 8.245252 39.810957 6.590233 -12.426085 -19.112486 -23.528049 -25.093117 -3.282674 8.635794 29.615979 0.000000 0.000000 0.000000 0.000000 0.000000 0.000000 -7.173078 46.553042 -1.255309 -12.703462 -57.206598 3.002990 2.034971 27.771427 -0.489878 -0.354889 7.805577 -6.369507 0.000000 0.000000 0.000000 0.000000 0.000000 0.000000 -147.573463 30.004405 96.440162 125.932855 -27.667647 66.446397 16.773820 23.104172 -22.743308 0.000000 0.000000 0.000000 -154.142480 56.146075 140.304763 153.212525 -76.830805 124.269065 9.353427 7.022133 -1.024336 0.000000 0.000000 0.000000
-22.667836 46.598240 359.972230 22.197302 -33.134933 18.984974 -0.171386 0.357577 -11.691505 -0.706182 0.561745 0.897662 -3.879928 19.048282 -7.040056 0.000000 0.000000 0.000000 -27.795722 17.420997 7.937717 38.093146 5.638595 -12.116205 -18.322591 -17.052570 -22.502343 -2.050519 2.775463 27.297552 0.000000 0.000000 0.000000 0.000000 0.000000 0.000000 -9.294394 44.533054 -0.015666 -9.551414 -54.553902 4.426341 4.051778 27.878028 -2.253371 -1.648000 5.300446 -5.431687 0.000000 0.000000 0.000000 0.000000 0.000000 0.000000 -147.047212 28.634738 93.610591 125.731792 -24.909834 64.101005 9.673649 16.051621 -20.906685 0.000000 0.000000 0.000000 -150.696271 59.600069 136.182216 133.106304 -80.579128 104.705243 10.892550 19.142685 -13.737997 0.000000 0.000000 0.000000
-22.554206 47.932358 359.961722 22.241555 -33.547587 18.982435 -0.226361 0.379051 -11.572350 -0.742152 0.593496 0.902811 -2.290250 19.321279 -7.642805 0.000000 0.000000 0.000000 -26.807682 17.326393 7.687232 36.453333 5.580012 -11.970256 -17.738716 -19.970866 -24.268118 -3.607288 4.911292 29.228109 0.000000 0.000000 0.000000 0.000000 0.000000 0.000000 -10.686794 42.676129 0.578992 -7.379945 -51.880505 5.583763 5.684015 28.157741 -3.760481 -3.440212 3.192233 -4.441442 0.000000 0.000000 0.000000 0.000000 0.000000 0.000000 -145.343082 26.109847 87.271169 122.373262 -19.449063 57.773958 6.514328 5.312388 -22.097673 0.000000 0.000000 0.000000 -148.824607 61.352072 134.232604 113.559255 -82.230771 85.769478 14.288384 17.506174 -15.117386 0.000000 0.000000 0.000000
-22.167072 49.385272 360.148927 22.538068 -34.099311 20.315042 -0.292222 0.283406 -12.651759 -0.780764 0.600505 0.922870 -0.310467 20.231207 -8.387739 0.000000 0.000000 0.000000 -26.096212 18.013861 7.595930 34.430617 4.482894 -11.300735 -16.642937 -17.865889 -24.610263 -3.406479 3.553472 29.501083 0.000000 0.000000 0.000000 0.000000 0.000000 0.000000 -12.209739 41.391847 1.206120 -5.014722 -49.918005 6.675335 5.750694 28.998376 -4.270377 -3.449940 2.747249 -4.078141 0.000000 0.000000 0.000000 0.000000 0.000000 0.000000 -144.499340 28.231911 88.435219 118.169569 -23.720892 55.706937 13.055872 7.362918 -22.678019 0.000000 0.000000 0.000000 -146.017613 65.049999 130.824138 70.241368 -81.298481 43.200886 12.897159 22.532035 -18.204957 0.000000 0.000000 0.000000
-21.796146 50.280943 359.943761 22.665928 -33.981724 19.359549 -0.240718 -0.110147 -11.651378 -0.744596 0.507234 0.941339 0.553904 20.998420 -8.700241 0.000000 0.000000 0.000000 -25.092575 18.807473 7.253076 31.586492 2.071444 -10.149850 -16.172234 -14.054266 -22.349029 -1.819538 1.964600 26.865488 0.000000 0.000000 0.000000 0.000000 0.000000 0.000000 -13.809129 39.294374 1.648710 -1.188011 -47.170911 8.072908 5.346782 29.653363 -4.585618 -4.156165 1.653663 -3.438218 0.000000 0.000000 0.000000 0.000000 0.000000 0.000000 -137.544988 34.221410 84.332957 109.830176 -23.019493 51.219183 13.690234 12.550283 -21.243737 0.000000 0.000000 0.000000 -136.976460 67.480678 120.451005 46.296361 -77.097677 19.865673 12.726220 29.299246 -23.399940 0.000000 0.000000 0.000000
-21.273642 51.142237 359.747029 23.483487 -34.000416 17.850712 -0.448254 -0.112689 -9.789902 -0.718711 0.328234 0.983822 0.529120 21.242125 -8.832416 0.000000 0.000000 0.000000 -25.309463 18.798421 7.329084 30.427708 1.537615 -9.854665 -15.916643 -12.845404 -21.063084 -2.661979 2.575553 25.737442 0.000000 0.000000 0.000000 0.000000 0.000000 0.000000 -15.437386 38.160598 2.217888 2.015533 -44.947947 8.660429 4.226525 29.765660 -4.255417 -4.570976 0.130174 -2.873928 0.000000 0.000000 0.000000 0.000000 0.000000 0.000000 -126.354306 40.824628 76.566622 97.912800 -22.183641 44.219939 14.410465 22.780269 -17.471822 0.000000 0.000000 0.000000 -125.371030 68.227635 106.999020 34.303914 -70.671489 8.634258 11.424963 37.936384 -29.094247 0.000000 0.000000 0.000000
